<svg width="1259" height="53" viewBox="0 0 1259 53" fill="none" xmlns="http://www.w3.org/2000/svg">
<path d="M785.475 53H782.192L778.523 49.1922L782.192 45.4821H785.475L781.71 49.1922L785.475 53Z" fill="white"/>
<path d="M768 53H771.283L774.951 49.1922L771.283 45.4821H768L771.765 49.1922L768 53Z" fill="white"/>
<path d="M879.998 53H876.812L873.047 49.1922L876.812 45.4821H879.998L876.33 49.1922L879.998 53Z" fill="#00BDFF"/>
<path d="M862.523 53H865.806L869.571 49.1922L865.806 45.4821H862.523L866.289 49.1922L862.523 53Z" fill="#00BDFF"/>
<path d="M974.616 53H971.333L967.664 49.1922L971.333 45.4821H974.616L970.85 49.1922L974.616 53Z" fill="white"/>
<path d="M957.141 53H960.423L964.092 49.1922L960.423 45.4821H957.141L960.906 49.1922L957.141 53Z" fill="white"/>
<path d="M1069.14 53H1065.95L1062.18 49.1922L1065.95 45.4821H1069.14L1065.47 49.1922L1069.14 53Z" fill="#00BDFF"/>
<path d="M1051.66 53H1054.94L1058.71 49.1922L1054.94 45.4821H1051.66L1055.43 49.1922L1051.66 53Z" fill="#00BDFF"/>
<path d="M1163.75 53H1160.47L1156.7 49.1922L1160.47 45.4821H1163.75L1159.99 49.1922L1163.75 53Z" fill="white"/>
<path d="M1146.28 53H1149.56L1153.23 49.1922L1149.56 45.4821H1146.28L1149.95 49.1922L1146.28 53Z" fill="white"/>
<path d="M1258.27 53H1255.09L1251.32 49.1922L1255.09 45.4821H1258.27L1254.6 49.1922L1258.27 53Z" fill="#00BDFF"/>
<path d="M1240.8 52.9999H1244.08L1247.84 49.1921L1244.08 45.482H1240.8L1244.56 49.1921L1240.8 52.9999Z" fill="#00BDFF"/>
<g clip-path="url(#clip0_8_298)">
<path d="M379.396 2.00146L363.281 2.00146V6.00146L379.396 6.00146V2.00146Z" fill="#178EF1"/>
<path d="M420.651 2.01099L388.422 2.01099V6.01099L420.651 6.01099V2.01099Z" fill="#178EF1"/>
<path d="M354.729 2.01236L322.5 2.01236V6.01236L354.729 6.01236V2.01236Z" fill="#178EF1"/>
<path d="M487.056 2.02222L470.941 2.02222V6.02222L487.056 6.02222V2.02222Z" fill="#1AD3D6"/>
<path d="M544.436 2.01611L512.207 2.01611V6.01611L544.436 6.01611V2.01611Z" fill="#178EF1"/>
<path d="M627.01 1.95776L618.953 1.95776V5.95776L627.01 5.95776V1.95776Z" fill="#178EF1"/>
<path d="M214.397 1.94067L206.34 1.94067V5.94067L214.397 5.94067V1.94067Z" fill="#178EF1"/>
<path d="M231.467 -0.0340576L223.41 -0.0340576V7.96594L231.467 7.96594V-0.0340576Z" fill="#178EF1"/>
<path d="M296.87 2.00598L264.641 2.00598V6.00598L296.87 6.00598V2.00598Z" fill="#1AD3D6"/>
<path d="M313.991 1.96948L305.934 1.96948V5.96948L313.991 5.96948V1.96948Z" fill="#178EF1"/>
<path d="M246.803 2.02039L238.746 2.02039V6.02039L246.803 6.02039V2.02039Z" fill="#178EF1"/>
<path d="M8.08849 -0.0679626L0.03125 -0.0679626L0.03125 7.93204L8.08849 7.93204L8.08849 -0.0679626Z" fill="#178EF1"/>
<path d="M25.159 -0.0426636L17.1018 -0.0426636V7.95734L25.159 7.95734V-0.0426636Z" fill="#178EF1"/>
<path d="M90.6119 -0.0645752L82.5547 -0.0645752V7.93542L90.6119 7.93542V-0.0645752Z" fill="#178EF1"/>
<path d="M196.695 1.98914L99.6016 1.98914V5.98914L196.695 5.98914V1.98914Z" fill="#178EF1"/>
<path d="M131.098 1.98935L34.0041 1.98935V5.98935L131.098 5.98935V1.98935Z" fill="#178EF1"/>
</g>
<defs>
<clipPath id="clip0_8_298">
<rect width="8" height="627" fill="white" transform="matrix(0 -1 1 0 0 8)"/>
</clipPath>
</defs>
</svg>
