<svg width="172" height="15" viewBox="0 0 172 15" fill="none" xmlns="http://www.w3.org/2000/svg">
<path d="M14.0381 0.637939L0.957184 13.3983H15.9524L29.0334 0.637939H14.0381Z" fill="#0CC9FA"/>
<path d="M15.9524 14.0364H3.05176e-05L14.0381 0.31897H30.3096L15.9524 14.0364ZM1.91431 13.0793H15.6334L28.0762 0.956988H14.3572L1.91431 13.0793Z" fill="#0CC9FA"/>
<path d="M42.1162 0.638062L29.0352 13.3984H44.0305L57.4305 0.638062H42.1162Z" fill="#0CC9FA"/>
<path d="M44.0305 14.0365H28.0781L42.1162 0.319092H58.3876L44.0305 14.0365ZM29.9924 13.0795H43.7115L56.1543 0.95711H42.4353L29.9924 13.0795Z" fill="#0CC9FA"/>
<path d="M70.5108 0.638062L57.4298 13.3984H72.106L85.506 0.638062H70.5108Z" fill="#0CC9FA"/>
<path d="M72.425 14.0365H56.4727L70.5107 0.319092H86.7822L72.425 14.0365ZM58.3869 13.0795H72.106L84.5488 0.95711H70.8298L58.3869 13.0795Z" fill="#0CC9FA"/>
<path d="M98.5849 0.638062L85.504 13.3984H100.499L113.58 0.638062H98.5849Z" fill="#0CC9FA"/>
<path d="M100.499 14.0365H84.5469L98.5849 0.319092H114.856L100.499 14.0365ZM86.4612 13.0795H100.18L112.623 0.95711H98.904L86.4612 13.0795Z" fill="#0CC9FA"/>
<path d="M126.663 0.638062L113.582 13.3984H128.577L141.658 0.638062H126.663Z" fill="#0CC9FA"/>
<path d="M128.577 14.0365H112.625L126.663 0.319092H142.935L128.577 14.0365ZM114.539 13.0795H128.258L140.701 0.95711H126.982L114.539 13.0795Z" fill="#0CC9FA"/>
<path d="M170.052 0.637939H155.056L141.656 13.3983H156.651L170.052 0.637939Z" fill="#0CC9FA"/>
<path d="M156.972 14.0364H141.02L155.058 0.31901L171.329 0L156.972 14.0364ZM142.934 13.0794H156.653L169.096 0.957028L155.058 1.27604L142.934 13.0794Z" fill="#0CC9FA"/>
</svg>
