<svg width="25" height="25" viewBox="0 0 25 25" fill="none" xmlns="http://www.w3.org/2000/svg">
<path d="M21.638 20.3454C21.638 20.7204 21.5547 21.1058 21.3776 21.4808C21.2005 21.8558 20.9714 22.21 20.6693 22.5433C20.1589 23.1058 19.5964 23.512 18.9609 23.7725C18.3359 24.0329 17.6589 24.1683 16.9297 24.1683C15.8672 24.1683 14.7318 23.9183 13.5339 23.4079C12.3359 22.8975 11.138 22.21 9.95052 21.3454C8.7526 20.4704 7.61719 19.5016 6.53385 18.4287C5.46094 17.3454 4.49219 16.21 3.6276 15.0225C2.77344 13.835 2.08594 12.6475 1.58594 11.4704C1.08594 10.2829 0.835938 9.14746 0.835938 8.06413C0.835938 7.35579 0.960937 6.67871 1.21094 6.05371C1.46094 5.41829 1.85677 4.83496 2.40885 4.31413C3.07552 3.65788 3.80469 3.33496 4.57552 3.33496C4.86719 3.33496 5.15885 3.39746 5.41927 3.52246C5.6901 3.64746 5.92969 3.83496 6.11719 4.10579L8.53385 7.51204C8.72135 7.77246 8.85677 8.01204 8.95052 8.24121C9.04427 8.45996 9.09635 8.67871 9.09635 8.87663C9.09635 9.12663 9.02344 9.37663 8.8776 9.61621C8.74219 9.85579 8.54427 10.1058 8.29427 10.3558L7.5026 11.1787C7.38802 11.2933 7.33594 11.4287 7.33594 11.5954C7.33594 11.6787 7.34635 11.7516 7.36719 11.835C7.39844 11.9183 7.42969 11.9808 7.45052 12.0433C7.63802 12.387 7.96094 12.835 8.41927 13.3766C8.88802 13.9183 9.38802 14.4704 9.92969 15.0225C10.4922 15.5745 11.0339 16.085 11.5859 16.5537C12.1276 17.012 12.5755 17.3245 12.9297 17.512C12.9818 17.5329 13.0443 17.5641 13.1172 17.5954C13.2005 17.6266 13.2839 17.637 13.3776 17.637C13.5547 17.637 13.6901 17.5745 13.8047 17.46L14.5964 16.6787C14.8568 16.4183 15.1068 16.2204 15.3464 16.0954C15.5859 15.9495 15.8255 15.8766 16.0859 15.8766C16.2839 15.8766 16.4922 15.9183 16.7214 16.012C16.9505 16.1058 17.1901 16.2412 17.4505 16.4183L20.8984 18.8662C21.1693 19.0537 21.3568 19.2725 21.4714 19.5329C21.5755 19.7933 21.638 20.0537 21.638 20.3454Z" stroke="white" stroke-width="1.2" stroke-miterlimit="10"/>
<path d="M18.0208 10.6283C18.0208 10.0033 17.5312 9.04492 16.8021 8.26367C16.1354 7.54492 15.25 6.98242 14.375 6.98242" stroke="white" stroke-width="1.2" stroke-linecap="round" stroke-linejoin="round"/>
<path d="M21.6667 10.6266C21.6667 6.59538 18.4063 3.33496 14.375 3.33496" stroke="white" stroke-width="1.2" stroke-linecap="round" stroke-linejoin="round"/>
</svg>
