<svg width="42" height="43" viewBox="0 0 42 43" fill="none" xmlns="http://www.w3.org/2000/svg">
<circle cx="21" cy="21.5" r="21" fill="white" fill-opacity="0.1"/>
<path d="M14.6515 17.2173C15.7794 17.2173 16.6937 16.303 16.6937 15.1752C16.6937 14.0474 15.7794 13.1331 14.6515 13.1331C13.5237 13.1331 12.6094 14.0474 12.6094 15.1752C12.6094 16.303 13.5237 17.2173 14.6515 17.2173Z" fill="white"/>
<path d="M18.6232 18.7649V30.0946H22.1409V24.4918C22.1409 23.0134 22.4191 21.5817 24.2521 21.5817C26.06 21.5817 26.0824 23.2719 26.0824 24.5851V30.0955H29.602V23.8823C29.602 20.8303 28.9449 18.4849 25.3777 18.4849C23.6651 18.4849 22.5171 19.4247 22.0476 20.3142H22V18.7649H18.6232ZM12.8907 18.7649H16.414V30.0946H12.8907V18.7649Z" fill="white"/>
</svg>
