<svg width="18" height="21" viewBox="0 0 18 21" fill="none" xmlns="http://www.w3.org/2000/svg">
<path d="M9 0C4.0374 0 0 3.92664 0 8.7531C0 14.3148 3.7107 17.6703 6.17175 19.891C6.95475 20.6311 7.98165 21 9.0063 21C10.0287 21 11.0489 20.6324 11.8206 19.8984C14.2812 17.6778 18 14.3205 18 8.7531C18 3.92664 13.9626 0 9 0ZM9 12.2543C7.01505 12.2543 5.4 10.6836 5.4 8.7531C5.4 6.8226 7.01505 5.25186 9 5.25186C10.985 5.25186 12.6 6.8226 12.6 8.7531C12.6 10.6836 10.985 12.2543 9 12.2543Z" fill="#0CD1FE"/>
</svg>
