<svg width="4" height="427" viewBox="0 0 4 427" fill="none" xmlns="http://www.w3.org/2000/svg">
<g clip-path="url(#clip0_8_248)">
<path d="M1.50781 129.509L1.50781 142.128H3.17448L3.17448 129.509H1.50781Z" fill="white"/>
<path d="M1.50391 97.2038L1.50391 122.441H3.17057L3.17057 97.2038H1.50391Z" fill="white"/>
<path d="M1.5041 148.827L1.5041 174.065H3.17077L3.17077 148.827H1.5041Z" fill="white"/>
<path d="M1.49994 45.2063L1.49994 57.8251H3.16661L3.16661 45.2063H1.49994Z" fill="white"/>
<path d="M1.50391 0.271667L1.50391 25.5093H3.17057L3.17057 0.271667H1.50391Z" fill="white"/>
<path d="M1.49231 258.718L1.49231 265.027H3.15899V258.718H1.49231Z" fill="white"/>
<path d="M0.648438 245.351L0.648438 251.66H3.98177L3.98177 245.351H0.648438Z" fill="#00F0FF"/>
<path d="M1.50781 194.136L1.50781 219.374H3.17448L3.17448 194.136H1.50781Z" fill="white"/>
<path d="M1.52344 180.729L1.52344 187.039H3.1901V180.729H1.52344Z" fill="white"/>
<path d="M1.5 233.34L1.5 239.649H3.16667V233.34H1.5Z" fill="white"/>
<path d="M0.664063 420.271L0.664062 426.581H3.9974L3.9974 420.271H0.664063Z" fill="white"/>
<path d="M0.652344 406.904L0.652344 413.213H3.98568L3.98568 406.904H0.652344Z" fill="white"/>
<path d="M1.51563 272.579L1.51562 348.61H3.18229L3.18229 272.579H1.51563Z" fill="white"/>
<path d="M1.51172 323.946L1.51172 399.978H3.17839L3.17839 323.946H1.51172Z" fill="white"/>
<path d="M0.660156 355.65L0.660156 361.959H3.99349L3.99349 355.65H0.660156Z" fill="#27D19B"/>
</g>
<defs>
<clipPath id="clip0_8_248">
<rect width="4" height="427" fill="white"/>
</clipPath>
</defs>
</svg>
