<svg width="138" height="182" viewBox="0 0 138 182" fill="none" xmlns="http://www.w3.org/2000/svg">
<path d="M5.99997 179C5.99997 177.343 4.65683 176 2.99999 176C1.34314 176 0 177.343 0 179C0 180.657 1.34314 182 2.99999 182C4.65683 182 5.99997 180.657 5.99997 179Z" fill="#178CF1"/>
<path d="M50.0002 179C50.0002 177.343 48.6571 176 47.0002 176C45.3434 176 44.0002 177.343 44.0002 179C44.0002 180.657 45.3434 182 47.0002 182C48.6571 182 50.0002 180.657 50.0002 179Z" fill="#178CF1"/>
<path d="M93.9997 179C93.9997 177.343 92.6566 176 90.9998 176C89.3429 176 87.9998 177.343 87.9998 179C87.9998 180.657 89.3429 182 90.9998 182C92.6566 182 93.9997 180.657 93.9997 179Z" fill="#178CF1"/>
<path d="M138 179C138 177.343 136.657 176 135 176C133.343 176 132 177.343 132 179C132 180.657 133.343 182 135 182C136.657 182 138 180.657 138 179Z" fill="#178CF1"/>
<path d="M5.99997 135C5.99997 133.343 4.65683 132 2.99999 132C1.34314 132 0 133.343 0 135C0 136.657 1.34314 138 2.99999 138C4.65683 138 5.99997 136.657 5.99997 135Z" fill="#A7A7B7"/>
<path d="M50.0002 135C50.0002 133.343 48.6571 132 47.0002 132C45.3434 132 44.0002 133.343 44.0002 135C44.0002 136.657 45.3434 138 47.0002 138C48.6571 138 50.0002 136.657 50.0002 135Z" fill="#A7A7B7"/>
<path d="M93.9997 135C93.9997 133.343 92.6566 132 90.9998 132C89.3429 132 87.9998 133.343 87.9998 135C87.9998 136.657 89.3429 138 90.9998 138C92.6566 138 93.9997 136.657 93.9997 135Z" fill="#A7A7B7"/>
<path d="M138 135C138 133.343 136.657 132 135 132C133.343 132 132 133.343 132 135C132 136.657 133.343 138 135 138C136.657 138 138 136.657 138 135Z" fill="#A7A7B7"/>
<path d="M5.99997 91.0001C5.99997 89.3432 4.65683 88.0001 2.99999 88.0001C1.34314 88.0001 0 89.3432 0 91.0001C0 92.6569 1.34314 94.0001 2.99999 94.0001C4.65683 94.0001 5.99997 92.6569 5.99997 91.0001Z" fill="#A7A7B7"/>
<path d="M50.0002 91.0001C50.0002 89.3432 48.6571 88.0001 47.0002 88.0001C45.3434 88.0001 44.0002 89.3432 44.0002 91.0001C44.0002 92.6569 45.3434 94.0001 47.0002 94.0001C48.6571 94.0001 50.0002 92.6569 50.0002 91.0001Z" fill="#A7A7B7"/>
<path d="M93.9997 91.0001C93.9997 89.3432 92.6566 88.0001 90.9998 88.0001C89.3429 88.0001 87.9998 89.3432 87.9998 91.0001C87.9998 92.6569 89.3429 94.0001 90.9998 94.0001C92.6566 94.0001 93.9997 92.6569 93.9997 91.0001Z" fill="#A7A7B7"/>
<path d="M138 91.0001C138 89.3432 136.657 88.0001 135 88.0001C133.343 88.0001 132 89.3432 132 91.0001C132 92.6569 133.343 94.0001 135 94.0001C136.657 94.0001 138 92.6569 138 91.0001Z" fill="#A7A7B7"/>
<path d="M5.99997 47C5.99997 45.3431 4.65683 44 2.99999 44C1.34314 44 0 45.3431 0 47C0 48.6569 1.34314 50 2.99999 50C4.65683 50 5.99997 48.6569 5.99997 47Z" fill="#A7A7B7"/>
<path d="M50.0002 47C50.0002 45.3431 48.6571 44 47.0002 44C45.3434 44 44.0002 45.3431 44.0002 47C44.0002 48.6569 45.3434 50 47.0002 50C48.6571 50 50.0002 48.6569 50.0002 47Z" fill="#A7A7B7"/>
<path d="M93.9997 47C93.9997 45.3431 92.6566 44 90.9998 44C89.3429 44 87.9998 45.3431 87.9998 47C87.9998 48.6569 89.3429 50 90.9998 50C92.6566 50 93.9997 48.6569 93.9997 47Z" fill="#A7A7B7"/>
<path d="M138 47C138 45.3431 136.657 44 135 44C133.343 44 132 45.3431 132 47C132 48.6569 133.343 50 135 50C136.657 50 138 48.6569 138 47Z" fill="#A7A7B7"/>
<path d="M5.99997 3C5.99997 1.34314 4.65683 0 2.99999 0C1.34314 0 0 1.34314 0 3C0 4.65686 1.34314 6 2.99999 6C4.65683 6 5.99997 4.65686 5.99997 3Z" fill="#A7A7B7"/>
<path d="M50.0002 3C50.0002 1.34314 48.6571 0 47.0002 0C45.3434 0 44.0002 1.34314 44.0002 3C44.0002 4.65686 45.3434 6 47.0002 6C48.6571 6 50.0002 4.65686 50.0002 3Z" fill="#A7A7B7"/>
<path d="M93.9997 3C93.9997 1.34314 92.6566 0 90.9998 0C89.3429 0 87.9998 1.34314 87.9998 3C87.9998 4.65686 89.3429 6 90.9998 6C92.6566 6 93.9997 4.65686 93.9997 3Z" fill="#A7A7B7"/>
<path d="M138 3C138 1.34314 136.657 0 135 0C133.343 0 132 1.34314 132 3C132 4.65686 133.343 6 135 6C136.657 6 138 4.65686 138 3Z" fill="#A7A7B7"/>
</svg>
