<svg width="396" height="9" viewBox="0 0 396 9" fill="none" xmlns="http://www.w3.org/2000/svg">
<path d="M17.4759 8.25894H14.1933L10.5244 4.45119L14.1933 0.741066H17.4759L13.7105 4.45119L17.4759 8.25894Z" fill="white"/>
<path d="M0 8.25894H3.28265L6.95149 4.45119L3.28265 0.741066H0L3.76539 4.45119L0 8.25894Z" fill="white"/>
<path d="M111.998 8.25894H108.812L105.047 4.45119L108.812 0.741066H111.998L108.329 4.45119L111.998 8.25894Z" fill="#00BDFF"/>
<path d="M94.5224 8.25894H97.805L101.57 4.45119L97.805 0.741066H94.5224L98.2878 4.45119L94.5224 8.25894Z" fill="#00BDFF"/>
<path d="M206.618 8.25894H203.335L199.666 4.45119L203.335 0.741066H206.618L202.852 4.45119L206.618 8.25894Z" fill="white"/>
<path d="M189.142 8.25894H192.425L196.093 4.45119L192.425 0.741066H189.142L192.907 4.45119L189.142 8.25894Z" fill="white"/>
<path d="M301.136 8.25894H297.95L294.185 4.45119L297.95 0.741066H301.136L297.467 4.45119L301.136 8.25894Z" fill="#00BDFF"/>
<path d="M283.66 8.25894H286.943L290.708 4.45119L286.943 0.741066H283.66L287.426 4.45119L283.66 8.25894Z" fill="#00BDFF"/>
<path d="M395.752 8.25894H392.469L388.704 4.45119L392.469 0.741066H395.752L391.987 4.45119L395.752 8.25894Z" fill="white"/>
<path d="M378.278 8.25894H381.561L385.23 4.45119L381.561 0.741066H378.278L381.947 4.45119L378.278 8.25894Z" fill="white"/>
</svg>
